<svg width="464" height="484" viewBox="0 0 464 484" fill="none" xmlns="http://www.w3.org/2000/svg">
<path class="letter" d="M88.6958 219.313L121.998 95.0058L246.302 61.693L337.304 152.687L304.002 276.994L179.698 310.307L88.6958 219.313Z" fill="#C4C4C4" stroke="black" stroke-width="4"/>
<path class="letter" d="M88.6958 219.313L121.998 95.0058L246.302 61.693L337.304 152.687L304.002 276.994L179.698 310.307L88.6958 219.313Z" fill="white" stroke="black" stroke-width="4"/>
<path  class="myHexagon"d="M256.195 243.879H253.195V246.879H256.195V243.879ZM293.52 243.879H296.52V240.879H293.52V243.879ZM293.52 258V261H296.52V258H293.52ZM238.617 258H235.617V261H238.617V258ZM238.617 172.688V169.688H235.617V172.688H238.617ZM256.195 172.688H259.195V169.688H256.195V172.688ZM256.195 246.879H293.52V240.879H256.195V246.879ZM290.52 243.879V258H296.52V243.879H290.52ZM293.52 255H238.617V261H293.52V255ZM241.617 258V172.688H235.617V258H241.617ZM238.617 175.688H256.195V169.688H238.617V175.688ZM253.195 172.688V243.879H259.195V172.688H253.195Z" fill="black"/>
<path  class="myHexagon"d="M355.874 171.118L321.405 295.107L196.793 327.251L106.65 235.406L141.119 111.417L265.731 79.2734L355.874 171.118Z" stroke="black" stroke-width="4"/>
<path d="M187.34 195L185.515 197.381L185.527 197.39L185.54 197.4L187.34 195ZM174.684 189.375L173.751 192.226L173.76 192.229L173.768 192.232L174.684 189.375ZM160.211 183.516L158.785 186.155L158.789 186.157L160.211 183.516ZM149.547 150.059L147.113 148.305L147.109 148.31L149.547 150.059ZM160.738 141.562L159.586 138.793L159.578 138.796L160.738 141.562ZM193.434 141.855L192.164 144.573L192.173 144.578L192.182 144.582L193.434 141.855ZM204.508 151.172L201.993 152.808L201.999 152.816L202.004 152.825L204.508 151.172ZM208.492 164.883V167.883H211.492V164.883H208.492ZM190.914 164.883H187.914V167.883H190.914V164.883ZM187.223 155.801L185.23 158.043L185.24 158.052L185.25 158.061L187.223 155.801ZM166.832 155.273L168.638 157.669L168.651 157.659L168.663 157.65L166.832 155.273ZM167.418 169.395L165.738 171.88L165.746 171.885L165.754 171.891L167.418 169.395ZM179.781 174.668L178.914 177.54L178.917 177.541L179.781 174.668ZM200.113 219.902L201.911 222.304L201.921 222.296L200.113 219.902ZM159.625 222.598L158.396 225.334L158.404 225.338L158.412 225.342L159.625 222.598ZM147.262 212.695L144.773 214.37L144.778 214.378L144.784 214.386L147.262 212.695ZM143.043 198.164V195.164H140.043V198.164H143.043ZM160.68 198.164H163.68V195.164H160.68V198.164ZM187.34 209.766L189.087 212.204L189.101 212.195L189.114 212.185L187.34 209.766ZM193.855 202.617C193.855 198.497 192.347 195.006 189.14 192.6L185.54 197.4C187.02 198.51 187.855 200.097 187.855 202.617H193.855ZM189.165 192.619C186.38 190.484 181.729 188.483 175.599 186.518L173.768 192.232C179.826 194.173 183.612 195.922 185.515 197.381L189.165 192.619ZM175.616 186.524C169.605 184.559 164.968 182.67 161.633 180.874L158.789 186.157C162.564 188.19 167.575 190.207 173.751 192.226L175.616 186.524ZM161.637 180.876C152.642 176.016 148.68 169.846 148.68 162.363H142.68C142.68 172.615 148.405 180.546 158.785 186.155L161.637 180.876ZM148.68 162.363C148.68 158.353 149.788 154.869 151.984 151.807L147.109 148.31C144.149 152.436 142.68 157.155 142.68 162.363H148.68ZM151.981 151.812C154.223 148.701 157.475 146.184 161.898 144.329L159.578 138.796C154.314 141.003 150.105 144.151 147.113 148.305L151.981 151.812ZM161.891 144.332C166.359 142.473 171.428 141.516 177.145 141.516V135.516C170.751 135.516 164.883 136.589 159.586 138.793L161.891 144.332ZM177.145 141.516C182.869 141.516 187.854 142.56 192.164 144.573L194.703 139.137C189.482 136.698 183.608 135.516 177.145 135.516V141.516ZM192.182 144.582C196.481 146.555 199.714 149.304 201.993 152.808L207.023 149.536C204.068 144.993 199.917 141.531 194.685 139.129L192.182 144.582ZM202.004 152.825C204.316 156.327 205.492 160.315 205.492 164.883H211.492C211.492 159.216 210.012 154.064 207.011 149.519L202.004 152.825ZM208.492 161.883H190.914V167.883H208.492V161.883ZM193.914 164.883C193.914 160.296 192.437 156.371 189.196 153.541L185.25 158.061C186.93 159.528 187.914 161.657 187.914 164.883H193.914ZM189.216 153.559C186.037 150.733 181.778 149.52 176.852 149.52V155.52C180.832 155.52 183.486 156.493 185.23 158.043L189.216 153.559ZM176.852 149.52C172.168 149.52 168.092 150.516 165.001 152.897L168.663 157.65C170.338 156.359 172.941 155.52 176.852 155.52V149.52ZM165.026 152.878C161.896 155.238 160.258 158.506 160.258 162.422H166.258C166.258 160.4 167.003 158.902 168.638 157.669L165.026 152.878ZM160.258 162.422C160.258 166.406 162.334 169.579 165.738 171.88L169.098 166.909C166.955 165.46 166.258 163.984 166.258 162.422H160.258ZM165.754 171.891C168.922 174.003 173.365 175.863 178.914 177.54L180.649 171.796C175.338 170.191 171.539 168.536 169.082 166.898L165.754 171.891ZM178.917 177.541C188.716 180.488 195.471 184.041 199.543 188.008L203.73 183.711C198.661 178.772 190.847 174.863 180.645 171.795L178.917 177.541ZM199.543 188.008C203.508 191.871 205.492 196.632 205.492 202.5H211.492C211.492 195.087 208.906 188.754 203.73 183.711L199.543 188.008ZM205.492 202.5C205.492 209.002 203.094 213.892 198.305 217.508L201.921 222.296C208.305 217.475 211.492 210.764 211.492 202.5H205.492ZM198.316 217.5C193.405 221.175 186.587 223.172 177.555 223.172V229.172C187.429 229.172 195.65 226.989 201.911 222.304L198.316 217.5ZM177.555 223.172C171.362 223.172 165.805 222.049 160.838 219.854L158.412 225.342C164.226 227.911 170.622 229.172 177.555 229.172V223.172ZM160.854 219.861C155.883 217.627 152.23 214.655 149.74 211.005L144.784 214.386C147.996 219.095 152.586 222.724 158.396 225.334L160.854 219.861ZM149.751 211.02C147.302 207.382 146.043 203.133 146.043 198.164H140.043C140.043 204.21 141.596 209.649 144.773 214.37L149.751 211.02ZM143.043 201.164H160.68V195.164H143.043V201.164ZM157.68 198.164C157.68 203.488 159.296 207.978 162.973 211.056C166.548 214.047 171.585 215.285 177.555 215.285V209.285C172.275 209.285 168.874 208.169 166.824 206.454C164.876 204.825 163.68 202.254 163.68 198.164H157.68ZM177.555 215.285C182.091 215.285 186.052 214.38 189.087 212.204L185.592 207.327C183.941 208.511 181.377 209.285 177.555 209.285V215.285ZM189.114 212.185C192.271 209.87 193.855 206.565 193.855 202.617H187.855C187.855 204.763 187.096 206.224 185.566 207.346L189.114 212.185Z" fill="black"/>
<path d="M62.5195 381.051C62.5195 382.574 60 386.324 54.9609 392.301H53.9062C53.125 391.988 52.6367 390.836 52.4414 388.844C52.0117 384.82 50.625 381.539 48.2812 379C45.9375 376.422 43.125 375.133 39.8438 375.133C36.7578 375.133 34.1016 376.266 31.875 378.531C29.6484 380.758 28.5352 383.434 28.5352 386.559C28.5352 388.824 29.2383 391.266 30.6445 393.883C32.0508 396.461 35.7031 400.562 41.6016 406.187C47.5391 411.812 51.3477 416.305 53.0273 419.664C54.707 422.984 55.5469 426.148 55.5469 429.156C55.5469 436.109 52.5195 442.242 46.4648 447.555C40.4492 452.828 33.3984 455.465 25.3125 455.465C18.6328 455.465 13.125 453.922 8.78906 450.836C4.45312 447.711 2.28516 445.172 2.28516 443.219C2.28516 442.125 3.47656 439.586 5.85938 435.602C8.24219 431.617 9.60938 429.625 9.96094 429.625C11.2109 429.625 12.0898 429.996 12.5977 430.738C13.1445 431.441 13.5156 432.77 13.7109 434.723C14.2969 440.816 15.7617 445.016 18.1055 447.32C20.4883 449.625 23.5742 450.777 27.3633 450.777C31.5039 450.777 35.1172 449.352 38.2031 446.5C41.2891 443.609 42.832 440.27 42.832 436.48C42.832 434.527 42.2266 432.457 41.0156 430.27C39.8438 428.043 36.4648 424.293 30.8789 419.02C25.332 413.707 21.6992 409.215 19.9805 405.543C18.2617 401.871 17.4023 398.297 17.4023 394.82C17.4023 388.766 19.6875 383.199 24.2578 378.121C28.8281 373.043 34.9023 370.504 42.4805 370.504C48.2227 370.504 52.9883 371.832 56.7773 374.488C60.6055 377.105 62.5195 379.293 62.5195 381.051ZM127.852 441.051C121.602 446.988 117.129 450.855 114.434 452.652C111.738 454.449 109.16 455.348 106.699 455.348C100.527 455.348 97.6172 449.898 97.9688 439C94.0625 444.586 90.4492 448.707 87.1289 451.363C83.8477 454.02 80.4492 455.348 76.9336 455.348C73.4961 455.348 70.5664 453.746 68.1445 450.543C65.7617 447.301 64.5703 443.336 64.5703 438.648C64.5703 432.789 66.1719 427.203 69.375 421.891C72.6172 416.578 76.7578 412.281 81.7969 409C86.8359 405.719 91.2891 404.078 95.1562 404.078C100.039 404.078 103.457 406.324 105.41 410.816L117.363 404.195H120.645L115.488 421.363C112.832 429.996 111.504 435.914 111.504 439.117C111.504 442.477 112.695 444.156 115.078 444.156C116.602 444.156 118.281 443.355 120.117 441.754C121.953 440.113 124.531 437.633 127.852 434.312V441.051ZM84.9609 444.273C88.8672 444.273 92.5391 440.953 95.9766 434.312C99.4531 427.633 101.191 421.48 101.191 415.855C101.191 413.668 100.703 411.969 99.7266 410.758C98.75 409.508 97.4414 408.883 95.8008 408.883C91.8945 408.883 88.1836 412.203 84.668 418.844C81.1914 425.484 79.4531 431.598 79.4531 437.184C79.4531 439.293 79.9609 441.012 80.9766 442.34C82.0312 443.629 83.3594 444.273 84.9609 444.273ZM155.508 381.402C155.508 390.777 152.051 395.465 145.137 395.465C141.777 395.465 138.906 394.449 136.523 392.418C138.789 388.98 140.547 385.113 141.797 380.816C144.883 382.73 147.363 383.687 149.238 383.687C151.348 383.687 153.438 382.926 155.508 381.402ZM156.68 441.051C147.539 450.66 140.703 455.465 136.172 455.465C133.672 455.465 131.562 454.195 129.844 451.656C128.125 449.078 127.266 445.855 127.266 441.988C127.266 433.668 130.078 422.145 135.703 407.418L150.586 404.312H151.289L145.43 422.652C143.008 430.23 141.797 435.641 141.797 438.883C141.797 440.172 142.07 441.227 142.617 442.047C143.203 442.828 143.926 443.219 144.785 443.219C146.309 443.219 147.832 442.672 149.355 441.578C150.918 440.445 153.359 438.023 156.68 434.312V441.051ZM232.91 441.051C223.652 450.465 214.18 455.172 204.492 455.172C201.68 455.172 198.965 454.801 196.348 454.059C193.77 453.355 190.605 452.145 186.855 450.426C183.145 448.707 179.863 447.457 177.012 446.676C171.738 452.457 166.973 455.348 162.715 455.348C161.23 455.348 160 454.859 159.023 453.883C158.047 452.906 157.559 451.715 157.559 450.309C157.559 447.34 159.004 444.742 161.895 442.516C164.824 440.25 168.945 438.687 174.258 437.828C176.484 434.781 177.91 431.812 178.535 428.922C179.16 425.992 179.648 421.187 180 414.508C180.664 400.758 184.336 389.996 191.016 382.223C197.734 374.41 205.02 370.504 212.871 370.504C218.262 370.504 222.676 372.223 226.113 375.66C229.59 379.059 231.328 383.414 231.328 388.727C231.328 394.859 229.512 400.23 225.879 404.84C222.246 409.449 218.066 411.754 213.34 411.754C210.879 411.754 208.945 411.09 207.539 409.762C206.133 408.395 205.43 406.539 205.43 404.195C205.43 402.984 205.664 401.578 206.133 399.977C207.188 401.187 208.516 401.793 210.117 401.793C212.773 401.793 215.098 400.211 217.09 397.047C219.082 393.883 220.078 390.113 220.078 385.738C220.078 382.379 219.316 379.742 217.793 377.828C216.27 375.875 214.18 374.898 211.523 374.898C208.32 374.898 205.82 376.051 204.023 378.355C202.266 380.66 201.035 383.414 200.332 386.617C199.629 389.82 198.867 394.996 198.047 402.145C197.266 409.293 195.938 415.641 194.062 421.187C192.227 426.695 188.77 432.105 183.691 437.418C187.012 437.184 189.883 437.379 192.305 438.004C194.766 438.629 198.262 439.82 202.793 441.578C207.363 443.297 211.289 444.156 214.57 444.156C220.977 444.156 227.09 440.875 232.91 434.312V441.051ZM285.469 441.051C283.477 442.809 281.543 444.059 279.668 444.801C277.793 445.504 276.309 445.855 275.215 445.855C272.402 445.855 269.609 444.762 266.836 442.574C261.211 451.09 254.766 455.348 247.5 455.348C242.969 455.348 239.297 453.648 236.484 450.25C233.672 446.852 232.266 442.34 232.266 436.715C232.266 427.809 235.43 420.172 241.758 413.805C248.086 407.398 255.645 404.195 264.434 404.195C267.754 404.195 270.176 404.566 271.699 405.309C273.262 406.012 274.219 406.852 274.57 407.828C274.922 408.805 275.098 410.035 275.098 411.52C275.098 418.824 273.105 427.789 269.121 438.414C271.113 440.25 273.203 441.168 275.391 441.168C278.008 441.168 281.367 438.883 285.469 434.312V441.051ZM266.133 408.297C265.547 408.062 264.707 407.945 263.613 407.945C258.535 407.945 254.551 410.602 251.66 415.914C248.809 421.227 247.383 427.437 247.383 434.547C247.383 438.492 248.008 441.559 249.258 443.746C250.508 445.934 252.246 447.027 254.473 447.027C257.246 447.027 260.254 444.469 263.496 439.352C259.824 434.742 257.988 429.781 257.988 424.469C257.988 418.219 260.703 412.828 266.133 408.297ZM343.008 441.051C333.75 450.66 326.133 455.465 320.156 455.465C317.5 455.465 315.293 454.566 313.535 452.77C311.816 450.934 310.957 448.629 310.957 445.855C310.957 441.168 312.754 434.566 316.348 426.051C318.262 421.441 319.219 418.434 319.219 417.027C319.219 415.426 318.457 414.625 316.934 414.625C315.371 414.625 313.105 415.699 310.137 417.848C307.168 419.957 304.043 422.848 300.762 426.52C299.395 433.707 298.711 442.34 298.711 452.418L285.645 455.465C285.137 451.363 284.883 446.91 284.883 442.105C284.883 430.465 286.484 419.625 289.688 409.586C292.891 399.547 297.93 388.902 304.805 377.652C309.922 375.582 314.375 373.902 318.164 372.613C321.992 371.285 324.18 370.621 324.727 370.621C325.742 370.621 326.602 371.441 327.305 373.082C328.008 374.723 328.359 376.773 328.359 379.234C328.359 383.375 327.09 387.965 324.551 393.004C322.012 398.004 318.027 404.059 312.598 411.168C317.793 408.16 321.25 406.266 322.969 405.484C324.688 404.703 326.445 404.312 328.242 404.312C330.234 404.312 331.836 405.035 333.047 406.48C334.297 407.887 334.922 409.762 334.922 412.105C334.922 415.621 333.516 421.07 330.703 428.453C327.93 435.836 326.543 440.465 326.543 442.34C326.543 443.199 326.797 443.961 327.305 444.625C327.852 445.289 328.477 445.621 329.18 445.621C331.68 445.621 336.289 441.852 343.008 434.312V441.051ZM302.402 417.027C316.348 400.816 323.32 388.863 323.32 381.168C323.32 378.824 322.676 377.652 321.387 377.652C319.238 377.652 316.172 381.5 312.188 389.195C308.203 396.891 304.941 406.168 302.402 417.027ZM370.664 381.402C370.664 390.777 367.207 395.465 360.293 395.465C356.934 395.465 354.062 394.449 351.68 392.418C353.945 388.98 355.703 385.113 356.953 380.816C360.039 382.73 362.52 383.687 364.395 383.687C366.504 383.687 368.594 382.926 370.664 381.402ZM371.836 441.051C362.695 450.66 355.859 455.465 351.328 455.465C348.828 455.465 346.719 454.195 345 451.656C343.281 449.078 342.422 445.855 342.422 441.988C342.422 433.668 345.234 422.145 350.859 407.418L365.742 404.312H366.445L360.586 422.652C358.164 430.23 356.953 435.641 356.953 438.883C356.953 440.172 357.227 441.227 357.773 442.047C358.359 442.828 359.082 443.219 359.941 443.219C361.465 443.219 362.988 442.672 364.512 441.578C366.074 440.445 368.516 438.023 371.836 434.312V441.051ZM405.586 441.051C400.664 445.934 396.406 449.547 392.812 451.891C389.219 454.195 385.801 455.348 382.559 455.348C379.199 455.348 376.465 453.941 374.355 451.129C372.285 448.277 371.25 444.547 371.25 439.937C371.25 435.875 372.227 430.504 374.18 423.824L376.758 414.977L372.246 415.211L374.121 406.012L379.688 405.777L385.195 387.496L400.898 384.273L394.922 404.664L403.066 404.195L401.133 413.219L392.051 413.922L388.125 427.047C386.797 431.617 386.133 435.25 386.133 437.945C386.133 439.781 386.582 441.285 387.48 442.457C388.418 443.59 389.609 444.156 391.055 444.156C393.047 444.156 395.02 443.531 396.973 442.281C398.926 440.992 401.797 438.336 405.586 434.312V441.051ZM463.125 441.051C453.867 450.66 446.25 455.465 440.273 455.465C437.617 455.465 435.41 454.566 433.652 452.77C431.934 450.934 431.074 448.629 431.074 445.855C431.074 441.168 432.871 434.566 436.465 426.051C438.379 421.441 439.336 418.434 439.336 417.027C439.336 415.426 438.574 414.625 437.051 414.625C435.488 414.625 433.223 415.699 430.254 417.848C427.285 419.957 424.16 422.848 420.879 426.52C419.512 433.707 418.828 442.34 418.828 452.418L405.762 455.465C405.254 451.363 405 446.91 405 442.105C405 430.465 406.602 419.625 409.805 409.586C413.008 399.547 418.047 388.902 424.922 377.652C430.039 375.582 434.492 373.902 438.281 372.613C442.109 371.285 444.297 370.621 444.844 370.621C445.859 370.621 446.719 371.441 447.422 373.082C448.125 374.723 448.477 376.773 448.477 379.234C448.477 383.375 447.207 387.965 444.668 393.004C442.129 398.004 438.145 404.059 432.715 411.168C437.91 408.16 441.367 406.266 443.086 405.484C444.805 404.703 446.562 404.312 448.359 404.312C450.352 404.312 451.953 405.035 453.164 406.48C454.414 407.887 455.039 409.762 455.039 412.105C455.039 415.621 453.633 421.07 450.82 428.453C448.047 435.836 446.66 440.465 446.66 442.34C446.66 443.199 446.914 443.961 447.422 444.625C447.969 445.289 448.594 445.621 449.297 445.621C451.797 445.621 456.406 441.852 463.125 434.312V441.051ZM422.52 417.027C436.465 400.816 443.438 388.863 443.438 381.168C443.438 378.824 442.793 377.652 441.504 377.652C439.355 377.652 436.289 381.5 432.305 389.195C428.32 396.891 425.059 406.168 422.52 417.027Z" fill="black"/>

<mask id="path-5-inside-1" fill="white">

</svg>

